<svg xmlns="http://www.w3.org/2000/svg" viewBox="0 0 179.09 225.58">
  <defs>
    <style>
      .cls-1 {
        fill: #326295;
      }
    </style>
  </defs>
  <title>one_bill_2</title>
  <g id="Layer_2" data-name="Layer 2">
    <g id="Layer_1-2" data-name="Layer 1">
      <g id="Layer_2-2" data-name="Layer 2">
        <g id="Layer_1-2-2" data-name="Layer 1-2">
          <path class="cls-1" d="M89.59,179.5C40.24,179.5.09,139.24.09,89.75S40.24,0,89.59,0s89.5,40.26,89.5,89.75S138.94,179.5,89.59,179.5ZM89.59,5C43,5,5.09,43,5.09,89.75S43,174.5,89.59,174.5s84.5-38,84.5-84.75S136.18,5,89.59,5Z"/>
          <path class="cls-1" d="M113.21,48.18H54.49c-15,0-15,14.15-15,23.51v5H60.4v43a11.66,11.66,0,0,0,11.69,11.63h42a11.67,11.67,0,0,0,11.65-11.65V60.73a12.53,12.53,0,0,0-12.53-12.55ZM60.4,71.71H44.46c0-12.73,1.44-18.45,9.94-18.5a6.81,6.81,0,0,1,6,6.78Zm60.32,48a6.65,6.65,0,0,1-6.65,6.65h-42a6.65,6.65,0,0,1-6.65-6.65h0V60a11.91,11.91,0,0,0-2.12-6.78h49.92a7.53,7.53,0,0,1,7.52,7.54Z"/>
          <path class="cls-1" d="M110.09,72.5h-38a2.5,2.5,0,0,1,0-5h38a2.5,2.5,0,0,1,0,5Zm-12,13.67h-26a2.5,2.5,0,0,1,0-5h26a2.5,2.5,0,0,1,0,5Zm0,13.66h-26a2.5,2.5,0,0,1,0-5h26a2.5,2.5,0,0,1,0,5Zm0,13.67h-26a2.5,2.5,0,0,1,0-5h26a2.5,2.5,0,0,1,0,5Z"/>
        </g>
      </g>
      <g>
        <path class="cls-1" d="M0,208.29v-.09c0-9.27,7-17.38,17.19-17.38s17.08,8,17.08,17.28v.1c0,9.26-7,17.38-17.18,17.38S0,217.56,0,208.29Zm30.34,0v-.09c0-7.63-5.57-13.87-13.25-13.87S3.94,200.47,3.94,208.1v.1c0,7.63,5.56,13.87,13.25,13.87S30.34,215.93,30.34,208.29Z"/>
        <path class="cls-1" d="M41.66,201.81a1.87,1.87,0,0,1,1.83-1.87,1.85,1.85,0,0,1,1.87,1.87v2.69a9.39,9.39,0,0,1,8.5-4.85c6,0,9.5,4,9.5,9.94v13.78a1.85,1.85,0,1,1-3.69,0V210.5c0-4.61-2.5-7.49-6.87-7.49s-7.44,3.12-7.44,7.78v12.58a1.81,1.81,0,0,1-1.82,1.87,1.85,1.85,0,0,1-1.88-1.87Z"/>
        <path class="cls-1" d="M82.08,225.58c-6.82,0-12.39-5.24-12.39-12.92v-.09c0-7.16,5-12.92,11.91-12.92,7.34,0,11.52,6,11.52,12.58A1.72,1.72,0,0,1,91.39,214h-18c.53,5.38,4.32,8.4,8.74,8.4a10.15,10.15,0,0,0,7.15-2.88,1.58,1.58,0,1,1,2.11,2.35A12.61,12.61,0,0,1,82.08,225.58Zm7.35-14.36c-.39-4.51-3-8.45-7.93-8.45-4.32,0-7.58,3.61-8.06,8.45Z"/>
        <path class="cls-1" d="M114.67,193.32a1.91,1.91,0,0,1,1.87-1.92H129c3.84,0,6.86,1.1,8.78,3a7.48,7.48,0,0,1,2.16,5.38v.1a8.11,8.11,0,0,1-5.33,7.77c4,1.2,7.2,3.51,7.2,8.12v.09c0,5.76-4.85,9.17-12.19,9.17H116.54a1.91,1.91,0,0,1-1.87-1.92Zm13.68,13.06c4.56,0,7.73-2.07,7.73-6v-.09c0-3.31-2.64-5.48-7.44-5.48H118.42v11.58Zm1.35,15.21c5.08,0,8.25-2.25,8.25-6v-.09c0-3.65-3.07-5.77-8.93-5.77h-10.6v11.86Z"/>
        <path class="cls-1" d="M148.7,192.41a2.2,2.2,0,0,1,4.37,0V193a2.2,2.2,0,0,1-4.37,0Zm.34,9.4a1.86,1.86,0,0,1,1.82-1.87,1.84,1.84,0,0,1,1.87,1.87v21.56a1.8,1.8,0,0,1-1.82,1.87,1.84,1.84,0,0,1-1.87-1.87Z"/>
        <path class="cls-1" d="M161.66,191.59a1.85,1.85,0,1,1,3.7,0v31.78a1.81,1.81,0,0,1-1.83,1.87,1.85,1.85,0,0,1-1.87-1.87Z"/>
        <path class="cls-1" d="M174.28,191.59a1.85,1.85,0,1,1,3.7,0v31.78a1.81,1.81,0,0,1-1.82,1.87,1.85,1.85,0,0,1-1.88-1.87Z"/>
      </g>
    </g>
  </g>
</svg>
